<svg xmlns="http://www.w3.org/2000/svg"  viewBox="0 0 64 64" width="50px" height="50px" baseProfile="basic"><path fill="#7bbeeb" d="M56.64,12.11L45.18,6.23v0.02c-0.63-0.38-1.48-0.33-2.06,0.31L24.98,26.93	c-0.01-0.02-0.03-0.03-0.04-0.04c-6.59-5.35-12.17-9.88-12.24-9.95c-0.21-0.19-0.49-0.3-0.79-0.3c-0.59,0-4.46,2.05-5.17,2.44	c-0.02,0.01-0.05,0.03-0.07,0.03c-0.02,0.01-0.03,0.02-0.05,0.03C6.25,19.34,6,19.73,6,20.18V45c0,0.48,0.28,0.89,0.69,1.08	c0.01,0,0.02,0,0.03,0.01c0.01,0,0.01,0,0.02,0.01c0.48,0.25,4.32,2.19,4.73,2.36c0.13,0.05,0.28,0.09,0.44,0.09	c0.21,0,0.42-0.06,0.59-0.16c0.05-0.03,9.68-8.09,12.58-10.53C32,45.37,39.26,53.25,43.14,57.47c0.53,0.58,1.28,0.66,1.88,0.39	l0.21-0.11l11.41-5.88c0.84-0.42,1.36-1.28,1.36-2.22V14.34C58,13.4,57.48,12.54,56.64,12.11z M11.91,41.48V23.56	c2.14,2.33,4.98,5.42,8.12,8.83L11.91,41.48z M46,43.98c-0.24-0.2-0.5-0.41-0.78-0.64c-3.18-2.58-8.4-6.82-13.55-10.99l13.52-11.34	L46,20.33V43.98z"/><polygon fill="#ace3ff" points="53,10.24 53,53.75 46,57.35 46,6.65"/><path fill="#8d6c9f" d="M45.575,44.923c-10.031-8.141-33.379-27.09-33.544-27.24c-0.017-0.015-0.042-0.032-0.076-0.041	c-0.596,0.169-2.943,1.344-4.859,2.379l-0.951-1.76c4.859-2.625,5.517-2.625,5.765-2.625c0.541,0,1.061,0.2,1.463,0.562	c0.494,0.414,33.134,26.904,33.463,27.171L45.575,44.923z M12.01,17.628L12.01,17.628L12.01,17.628z"/><path fill="#8d6c9f" d="M11.909,49.545c-0.283,0-0.56-0.054-0.82-0.16c-0.447-0.181-4.118-2.046-4.85-2.418	c-0.492-0.25-0.688-0.853-0.438-1.345c0.251-0.493,0.854-0.689,1.345-0.438c2.068,1.052,4.417,2.232,4.695,2.348	c0.479-0.278,1.169-0.118,1.445,0.36c0.276,0.478,0.191,1.085-0.286,1.362C12.67,49.444,12.293,49.545,11.909,49.545z"/><path fill="#8d6c9f" d="M12.499,49.388c-0.349,0-0.687-0.182-0.871-0.507c-0.25-0.441-0.128-0.991,0.265-1.29	c0.447-0.362,9.173-7.667,12.526-10.474c0.424-0.355,1.056-0.298,1.408,0.125c0.354,0.423,0.299,1.054-0.125,1.409	C13.129,49.18,13.1,49.197,12.991,49.258C12.835,49.347,12.666,49.388,12.499,49.388z"/><rect width="18.396" height="2" x="29.935" y="25.091" fill="#8d6c9f" transform="rotate(-39.986 39.135 26.092)"/><path fill="#8d6c9f" d="M44.344,59.005c-0.723,0-1.426-0.298-1.939-0.856C26.06,40.403,8.479,21.322,7.258,20.016	C7.153,19.968,7,20.055,7,20.182V45c0,0.168,0.255,0.191,0.325,0.112c0.369-0.41,1.001-0.443,1.412-0.075	c0.41,0.37,0.444,1.002,0.074,1.413c-0.418,0.465-1.012,0.731-1.63,0.731C5.979,47.182,5,46.203,5,45V20.182	C5,18.979,5.979,18,7.182,18c0.485,0,0.963,0.164,1.345,0.462c0.095,0.075,0.16,0.127,35.349,38.332	c0.271,0.293,0.586,0.213,0.71,0.164C44.71,56.91,45,56.753,45,56.35V7.656c0-0.404-0.292-0.559-0.418-0.607	s-0.446-0.127-0.717,0.174L25.688,27.555c-0.368,0.412-1,0.447-1.411,0.079c-0.412-0.368-0.447-1-0.079-1.412L42.375,5.89	c0.738-0.826,1.884-1.104,2.92-0.709C46.331,5.576,47,6.548,47,7.656V56.35c0,1.101-0.662,2.071-1.688,2.472	C44.996,58.945,44.668,59.005,44.344,59.005z"/><path fill="#8d6c9f" d="M8.068,46.781c-0.237,0-0.476-0.084-0.666-0.254c-0.412-0.368-0.447-1-0.08-1.412l11.96-13.391	c0.369-0.413,1.001-0.448,1.412-0.08c0.412,0.368,0.447,1,0.08,1.412L8.814,46.447C8.616,46.668,8.343,46.781,8.068,46.781z"/><path fill="#8d6c9f" d="M45.018,58.862c-0.362,0-0.713-0.198-0.89-0.542c-0.253-0.491-0.061-1.094,0.431-1.347l11.628-5.988	C56.688,50.727,57,50.215,57,49.651V14.338c0-0.565-0.312-1.077-0.814-1.334L44.524,7.021c-0.492-0.252-0.686-0.854-0.434-1.346	c0.252-0.49,0.856-0.686,1.346-0.433l11.661,5.982C58.271,11.826,59,13.02,59,14.338v35.313c0,1.316-0.728,2.508-1.897,3.112	l-11.628,5.988C45.328,58.826,45.172,58.862,45.018,58.862z"/><path fill="#8d6c9f" d="M11.909,42.455c-0.553,0-1-0.448-1-1V23.727c0-0.552,0.447-1,1-1s1,0.448,1,1v17.728	C12.909,42.007,12.462,42.455,11.909,42.455z"/><path fill="#8d6c9f" d="M54,48h-2c-0.553,0-1-0.448-1-1s0.447-1,1-1h2c0.553,0,1,0.448,1,1S54.553,48,54,48z"/><path fill="#8d6c9f" d="M54,43h-2c-0.553,0-1-0.448-1-1s0.447-1,1-1h2c0.553,0,1,0.448,1,1S54.553,43,54,43z"/><path fill="#8d6c9f" d="M54,38h-2c-0.553,0-1-0.448-1-1s0.447-1,1-1h2c0.553,0,1,0.448,1,1S54.553,38,54,38z"/><path fill="#8d6c9f" d="M54,33h-2c-0.553,0-1-0.448-1-1s0.447-1,1-1h2c0.553,0,1,0.448,1,1S54.553,33,54,33z"/><path fill="#8d6c9f" d="M54,28h-2c-0.553,0-1-0.448-1-1s0.447-1,1-1h2c0.553,0,1,0.448,1,1S54.553,28,54,28z"/><path fill="#8d6c9f" d="M54,23h-2c-0.553,0-1-0.448-1-1s0.447-1,1-1h2c0.553,0,1,0.448,1,1S54.553,23,54,23z"/><path fill="#8d6c9f" d="M54,18h-2c-0.553,0-1-0.448-1-1s0.447-1,1-1h2c0.553,0,1,0.448,1,1S54.553,18,54,18z"/></svg>